<svg width="781" height="161" viewBox="0 0 781 161" fill="none" xmlns="http://www.w3.org/2000/svg">
<path d="M491.834 62.1146H477.734V113.515H491.234C499.334 113.515 506.034 111.115 511.134 106.315C516.334 101.515 518.934 95.1146 518.934 87.2146C518.934 70.5146 509.834 62.1146 491.834 62.1146ZM491.434 107.415H484.234V68.2146H491.734C505.434 68.2146 512.134 74.5145 512.134 87.3145C512.134 93.6145 510.334 98.6146 506.734 102.115C503.134 105.715 497.934 107.415 491.434 107.415Z" fill="#27AAE1"/>
<path d="M538.935 75.7146C534.335 75.7146 530.134 76.9146 526.534 79.2146L526.334 79.3145V86.4146L527.135 85.7146C530.435 82.8146 534.234 81.3145 538.534 81.3145C543.134 81.3145 545.434 84.1145 545.534 89.8145L535.135 91.3145C526.935 92.4145 522.834 96.5146 522.834 103.515C522.834 106.815 523.935 109.415 526.135 111.415C528.335 113.415 531.234 114.415 534.834 114.415C539.434 114.415 543.035 112.515 545.635 108.815V113.515H552.034V89.5146C552.034 80.3146 547.635 75.7146 538.935 75.7146ZM545.534 95.3145V98.4146C545.534 101.415 544.634 103.915 542.834 105.815C541.034 107.815 538.834 108.715 536.034 108.715C534.034 108.715 532.434 108.215 531.234 107.115C530.034 106.115 529.435 104.815 529.435 103.115C529.435 100.915 530.034 99.3146 531.234 98.4146C532.534 97.5146 534.534 96.8146 537.234 96.4146L545.534 95.3145Z" fill="#27AAE1"/>
<path d="M568.435 65.7146L562.034 67.8145V76.5146H555.834V82.2146H562.034V103.315C562.034 110.615 565.334 114.215 571.834 114.215C574.034 114.215 575.834 113.815 577.334 113.015L577.635 112.915V106.915L576.834 107.515C575.834 108.215 574.735 108.615 573.435 108.615C571.735 108.615 570.434 108.215 569.734 107.315C568.934 106.415 568.635 104.715 568.635 102.315V82.1146H577.734V76.5146H568.635V65.7146H568.435Z" fill="#27AAE1"/>
<path d="M596.134 75.7146C591.534 75.7146 587.334 76.9146 583.734 79.2146L583.534 79.3145V86.4146L584.334 85.7146C587.634 82.8146 591.434 81.3145 595.734 81.3145C600.334 81.3145 602.634 84.1145 602.734 89.8145L592.334 91.3145C584.234 92.4145 580.034 96.5146 580.034 103.515C580.034 106.815 581.134 109.415 583.334 111.415C585.534 113.415 588.434 114.415 592.034 114.415C596.634 114.415 600.234 112.515 602.834 108.815V113.515H609.234V89.5146C609.134 80.3146 604.734 75.7146 596.134 75.7146ZM602.634 95.3145V98.4146C602.634 101.415 601.734 103.915 599.934 105.815C598.134 107.715 595.834 108.715 593.134 108.715C591.134 108.715 589.534 108.215 588.334 107.115C587.134 106.115 586.534 104.815 586.534 103.115C586.534 100.915 587.134 99.3146 588.334 98.4146C589.634 97.5146 591.634 96.8146 594.334 96.4146L602.634 95.3145Z" fill="#27AAE1"/>
<path d="M671.435 62.1146L660.834 101.615C660.634 102.415 660.434 103.115 660.334 103.715C660.234 102.915 660.035 102.315 659.935 101.715L649.034 62.5146L648.935 62.1146H642.935L631.534 101.515C631.234 102.315 631.035 103.115 630.935 103.915C630.835 103.115 630.635 102.315 630.435 101.515L619.435 62.1146H612.334L627.534 113.515H634.734L645.435 76.0146C645.635 75.4146 645.735 74.8146 645.935 74.2146C646.035 74.8146 646.234 75.5146 646.334 76.1146L656.734 113.515H664.034L678.635 62.1146H671.435Z" fill="#27AAE1"/>
<path d="M696.934 75.7146C691.134 75.7146 686.534 77.5146 683.234 81.0146C679.934 84.5146 678.234 89.4146 678.234 95.5146C678.234 101.115 679.834 105.715 683.134 109.215C686.434 112.715 690.734 114.415 696.134 114.415C701.634 114.415 706.034 112.615 709.434 109.115C712.734 105.615 714.434 100.815 714.434 95.0146C714.434 89.0146 712.834 84.3146 709.734 80.9146C706.634 77.4146 702.334 75.7146 696.934 75.7146ZM696.434 108.715C692.934 108.715 690.034 107.515 687.934 105.115C685.834 102.715 684.734 99.3146 684.734 95.2146C684.734 90.9146 685.834 87.4146 687.934 84.9146C690.034 82.4146 692.934 81.2146 696.434 81.2146C700.034 81.2146 702.934 82.4145 704.834 84.8145C706.834 87.2145 707.834 90.6146 707.834 95.0146C707.834 99.4146 706.834 102.815 704.934 105.115C702.934 107.615 700.134 108.715 696.434 108.715Z" fill="#27AAE1"/>
<path d="M740.434 83.6146V76.5146L740.134 76.4146C739.234 76.1146 738.034 75.9146 736.434 75.9146C734.234 75.9146 732.234 76.7146 730.434 78.2146C729.234 79.3146 728.134 80.6145 727.334 82.3145V76.5146H720.934V113.515H727.334V94.6146C727.334 90.8146 728.134 87.6145 729.734 85.3145C731.334 83.0145 733.234 81.9146 735.534 81.9146C737.334 81.9146 738.634 82.3146 739.534 83.0146L740.434 83.6146Z" fill="#27AAE1"/>
<path d="M764.134 87.6146L780.334 62.1146H772.734L761.734 80.1146C761.234 80.8146 760.734 81.8146 760.034 83.0146C759.634 82.2146 759.134 81.3145 758.534 80.3145L747.934 62.1146H739.934L755.834 87.7146L738.634 113.515H746.734L759.034 93.7146C759.334 93.1146 759.634 92.6146 759.834 92.1146C760.134 92.8146 760.434 93.3146 760.634 93.7146L772.534 113.415H780.534L764.134 87.6146Z" fill="#27AAE1"/>
<path d="M244.634 113.515V89.9148H218.534V113.515H212.034V62.8148H218.534V83.9148H244.634V62.8148H251.234V113.515H244.634Z" fill="#0A78FF"/>
<path d="M324.334 75.6151C326.534 76.6151 328.434 77.9151 329.934 79.6151C331.434 81.3151 332.634 83.4151 333.534 85.8151C334.434 88.2151 334.834 90.9151 334.834 93.8151C334.834 96.7151 334.434 99.4151 333.534 101.815C332.634 104.215 331.434 106.315 329.934 108.115C328.334 109.815 326.434 111.215 324.334 112.115C322.134 113.115 319.734 113.515 317.134 113.515C314.734 113.515 310.234 113.115 307.834 112.015C304.734 110.615 302.434 108.115 301.634 107.115C300.834 106.115 298.134 103.015 298.134 94.5151C298.134 87.4151 298.134 61.2151 298.134 61.2151H304.634V79.3151C306.334 77.6151 308.234 76.3151 310.334 75.4151C312.434 74.5151 314.734 74.0151 317.134 74.0151C319.734 74.1151 322.134 74.6151 324.334 75.6151ZM324.834 104.015C326.934 101.415 328.034 98.0151 328.034 93.8151C328.034 89.6151 326.934 86.3151 324.834 83.7151C322.734 81.1151 319.834 79.8151 316.134 79.8151C312.434 79.8151 309.534 81.0151 307.434 83.5151C305.334 85.9151 304.334 89.4151 304.334 93.8151C304.334 98.3151 305.334 101.815 307.434 104.215C309.534 106.615 312.434 107.915 316.134 107.915C319.834 107.815 322.734 106.615 324.834 104.015Z" fill="#0A78FF"/>
<path d="M284.434 75.4153V97.6154C284.434 101.015 283.634 103.515 282.034 105.115C280.434 106.715 277.634 107.215 274.734 107.215C271.834 107.215 269.034 106.615 267.434 105.115C265.834 103.515 265.034 101.015 265.034 97.6154V75.4153H258.534V99.9153C258.534 102.215 258.934 104.315 259.634 106.015C260.434 107.715 261.434 109.215 262.634 110.315C263.834 111.415 265.234 112.215 266.834 112.815C268.434 113.315 270.034 113.615 271.534 113.615C272.634 113.615 275.734 113.615 274.734 113.615C273.634 113.615 276.834 113.615 277.934 113.615C279.534 113.615 281.134 113.315 282.634 112.815C284.234 112.215 285.634 111.415 286.834 110.315C288.034 109.215 289.034 107.715 289.834 106.015C290.634 104.315 290.934 102.215 290.934 99.9153V75.4153H284.434Z" fill="#0A78FF"/>
<path d="M54.2344 63.9148H75.0344C82.0344 63.9148 86.5344 66.6148 88.5344 72.0148C90.0344 76.0148 89.9344 81.0148 88.5344 87.0148C86.9344 93.5148 84.2344 99.1148 80.5344 103.615C75.7344 109.415 69.8344 112.415 62.9344 112.415H44.2344C43.3344 112.415 42.6344 111.515 42.8344 110.615L54.2344 63.9148ZM54.1344 104.115H63.7344C67.4344 104.115 70.5344 102.415 73.2344 98.9148C75.5344 96.1148 77.1344 92.4148 78.3344 87.8148C79.9344 81.5148 79.6344 77.1148 77.7344 74.6148C76.4344 73.0148 74.3344 72.3148 71.3344 72.3148H62.0344L54.1344 104.115Z" fill="#3F4959"/>
<path d="M141.834 103.815L139.834 112.315H175.534L177.534 103.815H151.534H141.834Z" fill="#3F4959"/>
<path d="M151.634 63.9148L149.534 72.5148H159.234H178.434H185.734L187.834 63.9148H151.634Z" fill="#3F4959"/>
<path d="M147.035 82.8148L144.935 91.2148H154.635H171.935H173.235L175.335 82.8148H156.735H147.035Z" fill="#3F4959"/>
<path d="M11.4344 63.9148L0.0343617 110.615C-0.165638 111.515 0.534363 112.415 1.43436 112.415H35.3344L37.4344 103.915H11.4344L14.5344 91.3148H33.1344L35.2344 82.8148H16.5344L19.0344 72.5148H45.5344L47.6344 63.9148H11.4344Z" fill="#3F4959"/>
<path d="M139.734 79.1148C140.334 75.0148 139.534 71.5148 137.134 68.4148C134.134 64.7148 129.334 62.8148 122.734 62.8148C115.234 62.8148 108.734 65.4148 103.234 70.6148C98.4343 75.2148 95.1343 81.1148 93.4343 88.3148C91.5343 96.2148 92.1343 102.515 95.3343 107.115C98.3343 111.315 103.934 113.515 110.134 113.515C120.334 113.515 125.934 110.515 130.734 104.515C134.434 99.9148 137.134 94.3148 138.734 87.5148C138.834 87.1148 138.934 86.7148 139.034 86.3148H136.634H128.834H119.034L117.034 94.3148H126.334C125.434 96.3148 124.434 98.1148 123.234 99.6148C120.534 103.115 116.734 104.915 112.834 104.915C108.934 104.915 106.134 103.615 104.334 101.315C102.134 98.5148 101.734 94.2148 103.234 88.3148C104.634 82.5148 107.034 78.1148 110.534 75.1148C113.634 72.4148 117.134 71.1148 120.934 71.1148C122.534 71.1148 124.034 71.4148 125.434 72.0148C126.534 72.6148 127.434 73.3148 128.134 74.3148C128.734 75.1148 129.134 76.0148 129.434 77.0148C129.734 77.8148 129.734 78.5148 129.634 79.0148H139.734V79.1148Z" fill="#3F4959"/>
<path d="M398.435 74.5152C397.835 73.5152 397.035 72.7152 396.135 72.2152C389.035 68.1152 381.935 72.8152 381.435 79.3152L370.535 81.0152C368.235 65.1152 358.835 51.5152 345.735 43.5152L356.835 26.8152C360.535 28.2152 364.935 28.0152 369.535 25.2152C371.235 24.1152 372.535 22.6152 373.435 20.9152C379.635 8.41519 367.335 -3.9848 354.735 2.1152C352.535 3.2152 350.735 4.9152 349.635 7.1152C346.235 13.7152 348.135 20.2152 352.335 24.1152L342.635 41.7152C335.335 37.9152 327.035 35.7152 318.235 35.7152C308.335 35.7152 299.035 38.5152 291.135 43.2152L285.035 32.1152C288.235 29.3152 289.635 24.5152 286.735 19.5152C286.135 18.6152 285.335 17.8152 284.435 17.2152C275.635 12.1152 266.535 20.6152 270.635 29.4152C271.035 30.3152 271.735 31.1152 272.435 31.7152C276.135 34.7152 279.435 34.7152 282.235 33.7152L289.035 44.5152C283.835 48.0152 279.235 52.3152 275.535 57.3152C287.535 43.8152 307.035 37.2152 327.535 44.3152C340.435 48.8152 350.635 58.9152 355.135 71.8152C366.635 104.915 342.335 135.815 310.835 135.815C296.835 135.815 284.235 129.615 275.535 119.915C277.235 122.215 279.035 124.315 281.035 126.315L265.035 142.715C262.135 141.015 258.435 140.615 254.435 143.215C253.535 143.815 252.735 144.615 252.235 145.515C247.235 154.515 256.535 163.715 265.535 158.515C266.535 158.015 267.335 157.215 267.835 156.215C270.435 152.015 269.735 147.915 267.635 145.015L282.335 127.415C291.735 136.115 304.335 141.415 318.135 141.415C332.835 141.415 346.135 135.415 355.735 125.715L362.435 132.215C360.135 136.115 359.635 141.215 362.335 146.415C363.435 148.415 365.135 150.115 367.135 151.115C379.835 157.515 392.335 144.915 385.835 132.215C384.735 130.115 383.035 128.415 380.935 127.315C375.235 124.415 369.535 125.415 365.535 128.515L358.235 122.815C366.135 113.515 370.935 101.515 370.935 88.4152C370.935 86.6152 370.835 84.9152 370.635 83.2152L381.635 82.4152C382.835 86.2152 386.335 89.0152 390.535 89.0152C397.635 89.4152 402.735 81.9152 398.435 74.5152Z" fill="#0A78FF"/>
<path d="M438.534 108.615H433.034V67.6146H438.534V108.615Z" fill="#B9C1CD"/>
</svg>
