<svg width="72" height="34" viewBox="0 0 72 34" fill="none" xmlns="http://www.w3.org/2000/svg">
<path opacity="0.8" fill-rule="evenodd" clip-rule="evenodd" d="M55.725 4.112C56.529 4.112 56.861 4.444 56.603 5.595C56.392 6.505 55.348 10.867 55.348 10.867H43.372C40.732 10.867 38.784 12.155 38.784 13.634C38.784 15.114 40.577 15.713 42.328 15.713H47.242C53.646 15.713 55.917 18.123 55.702 21.845C55.323 28.475 50.964 33.997 39.819 33.997H26.666C26.266 33.997 25.826 33.665 26.02 32.786L26.656 29.986L26.779 29.443L27.377 26.812C27.367 26.746 27.327 26.794 27.327 26.794C27.262 26.942 27.203 27.059 27.11 27.238C25.432 30.488 21.286 34 18.194 34H5.97597C1.36397 34 -0.706032 30.193 0.213968 26.023L5.09397 5.057C5.27297 4.319 5.49597 4.141 6.09297 4.141H14.992L9.84397 26.51H36.837C41.925 26.505 42.917 26.392 44.042 25.488C44.552 25.078 45.024 24.238 45.01 23.518C44.982 22.21 43.937 21.934 42.053 21.934L40.308 21.924C31.778 21.924 28.472 18.64 28.472 14.365C28.472 10.095 32.33 4.112 40.922 4.112H55.725ZM72 0L59.24 7.182C59.24 7.182 59.754 4.828 59.91 4.127C60.07 3.385 59.854 2.825 58.895 2.612L47.19 0H72Z" fill="lightgray"/>
</svg>
